<mxfile host="app.diagrams.net" agent="Mozilla/5.0 (Windows NT 10.0; Win64; x64) AppleWebKit/537.36 (KHTML, like Gecko) Chrome/92.0.4515.131 Safari/537.36 Edg/92.0.902.67" version="28.2.8">
  <diagram name="第 1 页" id="CAHq5wpfGiY69Zr28IA7">
    <mxGraphModel dx="2231" dy="2009" grid="1" gridSize="10" guides="1" tooltips="1" connect="1" arrows="1" fold="1" page="1" pageScale="1" pageWidth="827" pageHeight="1169" math="0" shadow="0">
      <root>
        <mxCell id="0" />
        <mxCell id="1" parent="0" />
        <mxCell id="B1fuLeS9RBR3NKVra5zc-1" value="&lt;font style=&quot;font-size: 14px;&quot;&gt;日拱一卒&lt;br&gt;每天新增/强化/调整表述一个国策&lt;/font&gt;" style="rounded=1;whiteSpace=wrap;html=1;fillColor=#67AB9F;" parent="1" vertex="1">
          <mxGeometry x="190" y="-170" width="190" height="100" as="geometry" />
        </mxCell>
        <mxCell id="B1fuLeS9RBR3NKVra5zc-2" value="扎瓦鲁多&lt;br&gt;处理紧急情况时允许暂时冻结国策" style="rounded=1;whiteSpace=wrap;html=1;fillColor=#D5E8D4;" parent="1" vertex="1">
          <mxGeometry x="300" y="440" width="120" height="60" as="geometry" />
        </mxCell>
        <mxCell id="B1fuLeS9RBR3NKVra5zc-3" value="&lt;br&gt;运动不息&lt;br&gt;每天进行至少一次不少于10分钟的运动&lt;br&gt;&lt;span style=&quot;color: rgba(0, 0, 0, 0); font-family: monospace; font-size: 0px; text-align: start; white-space: nowrap;&quot;&gt;每周进行不少于15分钟的运动%3CmxGraphModel%3E%3Croot%3E%3CmxCell%20id%3D%220%22%2F%3E%3CmxCell%20id%3D%221%22%20parent%3D%220%22%2F%3E%3CmxCell%20id%3D%222%22%20value%3D%22%E6%AF%8F%E5%A4%A9%E6%96%B0%E5%A2%9E%E4%B8%80%E4%B8%AA%E5%9B%BD%E7%AD%96%22%20style%3D%22rounded%3D1%3BwhiteSpace%3Dwrap%3Bhtml%3D1%3B%22%20vertex%3D%221%22%20parent%3D%221%22%3E%3CmxGeometry%20x%3D%22340%22%20y%3D%2220%22%20width%3D%22120%22%20height%3D%2260%22%20as%3D%22geometry%22%2F%3E%3C%2FmxCell%3E%3C%2Froot%3E%3C%2FmxGraphModel%3E每周进行不少于15分钟的运动&lt;/span&gt;" style="rounded=1;whiteSpace=wrap;html=1;fillColor=#D5E8D4;" parent="1" vertex="1">
          <mxGeometry x="140" y="550" width="120" height="60" as="geometry" />
        </mxCell>
        <mxCell id="B1fuLeS9RBR3NKVra5zc-4" value="养精蓄锐&lt;br&gt;每天睡眠不少于7.5小时" style="rounded=1;whiteSpace=wrap;html=1;fillColor=#D5E8D4;" parent="1" vertex="1">
          <mxGeometry x="140" y="440" width="120" height="60" as="geometry" />
        </mxCell>
        <mxCell id="B1fuLeS9RBR3NKVra5zc-5" value="澄如明镜&lt;br&gt;起床的30min内看专业内容" style="rounded=1;whiteSpace=wrap;html=1;fillColor=#D5E8D4;" parent="1" vertex="1">
          <mxGeometry x="140" y="650" width="120" height="60" as="geometry" />
        </mxCell>
        <mxCell id="B1fuLeS9RBR3NKVra5zc-7" value="灵魂之王&lt;br&gt;每天做不少于15分钟的音乐练习" style="rounded=1;whiteSpace=wrap;html=1;fillColor=#D5E8D4;" parent="1" vertex="1">
          <mxGeometry x="460" y="550" width="120" height="60" as="geometry" />
        </mxCell>
        <mxCell id="B1fuLeS9RBR3NKVra5zc-8" value="T2 CTDP增强" style="text;strokeColor=none;align=center;fillColor=none;html=1;verticalAlign=middle;whiteSpace=wrap;rounded=0;" parent="1" vertex="1">
          <mxGeometry x="-50" y="250" width="80" height="30" as="geometry" />
        </mxCell>
        <mxCell id="B1fuLeS9RBR3NKVra5zc-9" value="T2 精力管理" style="text;strokeColor=none;align=center;fillColor=none;html=1;verticalAlign=middle;whiteSpace=wrap;rounded=0;" parent="1" vertex="1">
          <mxGeometry x="245" y="250" width="80" height="30" as="geometry" />
        </mxCell>
        <mxCell id="B1fuLeS9RBR3NKVra5zc-10" value="T2 关键节点约束" style="text;strokeColor=none;align=center;fillColor=none;html=1;verticalAlign=middle;whiteSpace=wrap;rounded=0;" parent="1" vertex="1">
          <mxGeometry x="567.5" y="250" width="95" height="30" as="geometry" />
        </mxCell>
        <mxCell id="B1fuLeS9RBR3NKVra5zc-11" value="过载保护" style="text;strokeColor=none;align=center;fillColor=none;html=1;verticalAlign=middle;whiteSpace=wrap;rounded=0;" parent="1" vertex="1">
          <mxGeometry x="330" y="400" width="60" height="30" as="geometry" />
        </mxCell>
        <mxCell id="B1fuLeS9RBR3NKVra5zc-12" value="精力提升" style="text;strokeColor=none;align=center;fillColor=none;html=1;verticalAlign=middle;whiteSpace=wrap;rounded=0;" parent="1" vertex="1">
          <mxGeometry x="170" y="400" width="60" height="30" as="geometry" />
        </mxCell>
        <mxCell id="B1fuLeS9RBR3NKVra5zc-13" value="T2 基本陷阱规划" style="text;strokeColor=none;align=center;fillColor=none;html=1;verticalAlign=middle;whiteSpace=wrap;rounded=0;" parent="1" vertex="1">
          <mxGeometry x="890" y="250" width="100" height="30" as="geometry" />
        </mxCell>
        <mxCell id="B1fuLeS9RBR3NKVra5zc-15" value="心无旁骛&lt;br&gt;工作日在公司16.00前不刷短视频，只允许听歌" style="rounded=1;whiteSpace=wrap;html=1;fillColor=#D5E8D4;" parent="1" vertex="1">
          <mxGeometry x="650" y="440" width="120" height="60" as="geometry" />
        </mxCell>
        <mxCell id="Ux4uEmjnoSaE70JmKrlA-6" value="自由支配" style="text;strokeColor=none;align=center;fillColor=none;html=1;verticalAlign=middle;whiteSpace=wrap;rounded=0;" parent="1" vertex="1">
          <mxGeometry x="490" y="400" width="60" height="30" as="geometry" />
        </mxCell>
        <mxCell id="Ux4uEmjnoSaE70JmKrlA-7" value="工作时间" style="text;strokeColor=none;align=center;fillColor=none;html=1;verticalAlign=middle;whiteSpace=wrap;rounded=0;" parent="1" vertex="1">
          <mxGeometry x="680" y="400" width="60" height="30" as="geometry" />
        </mxCell>
        <mxCell id="OrBjz5m8nXx1iCDQ5Hq3-1" value="忧郁蓝调&lt;br&gt;工作日一天开始时先进行每日计划" style="rounded=1;whiteSpace=wrap;html=1;fillColor=#D5E8D4;" parent="1" vertex="1">
          <mxGeometry x="810" y="440" width="120" height="60" as="geometry" />
        </mxCell>
        <mxCell id="OrBjz5m8nXx1iCDQ5Hq3-2" value="引导程序&lt;br&gt;每天早上起床后30min和晚上睡觉前刷牙洗脸" style="rounded=1;whiteSpace=wrap;html=1;fillColor=#D5E8D4;" parent="1" vertex="1">
          <mxGeometry x="460" y="440" width="120" height="60" as="geometry" />
        </mxCell>
        <mxCell id="eap-n_OYVToZZWxwlmzg-2" value="陷阱规避" style="text;strokeColor=none;align=center;fillColor=none;html=1;verticalAlign=middle;whiteSpace=wrap;rounded=0;" parent="1" vertex="1">
          <mxGeometry x="840" y="400" width="60" height="30" as="geometry" />
        </mxCell>
        <mxCell id="59g7xkOBhEJ2ZJnalg8H-11" value="&lt;font style=&quot;font-size: 14px;&quot;&gt;旁支收束&lt;br&gt;计时开始后消灭无关目标的思想发散&lt;/font&gt;" style="rounded=1;whiteSpace=wrap;html=1;fillColor=#CCE5FF;" parent="1" vertex="1">
          <mxGeometry x="-105" y="290" width="190" height="100" as="geometry" />
        </mxCell>
        <mxCell id="59g7xkOBhEJ2ZJnalg8H-12" value="&lt;span style=&quot;font-size: 14px;&quot;&gt;众木成林&lt;br&gt;每天早上打开国策树页面更新&lt;/span&gt;" style="rounded=1;whiteSpace=wrap;html=1;fillColor=#FF9933;" parent="1" vertex="1">
          <mxGeometry x="520" y="290" width="190" height="100" as="geometry" />
        </mxCell>
        <mxCell id="59g7xkOBhEJ2ZJnalg8H-13" value="&lt;span style=&quot;font-size: 14px;&quot;&gt;正本清源&lt;br&gt;计时期间非突发情况不能看到手机&lt;/span&gt;" style="rounded=1;whiteSpace=wrap;html=1;fillColor=#FF3333;" parent="1" vertex="1">
          <mxGeometry x="845" y="290" width="190" height="100" as="geometry" />
        </mxCell>
        <mxCell id="59g7xkOBhEJ2ZJnalg8H-14" value="&lt;font style=&quot;font-size: 14px;&quot;&gt;精神聚拢&lt;br&gt;每天熄灯和起床的时间尽量早于前日&lt;br&gt;750/2400&lt;/font&gt;" style="rounded=1;whiteSpace=wrap;html=1;fillColor=#E6FFCC;" parent="1" vertex="1">
          <mxGeometry x="190" y="290" width="190" height="100" as="geometry" />
        </mxCell>
        <mxCell id="FNR3RzIvYv-M7O-Cg0RV-1" value="&lt;font style=&quot;&quot;&gt;&lt;span style=&quot;font-size: 14px;&quot;&gt;慎终如始&lt;/span&gt;&lt;br&gt;&lt;div style=&quot;&quot;&gt;&lt;span style=&quot;font-size: 14px;&quot;&gt;每天8.00~24.00禁止限制级应用和网站，也禁止将其移出限制级&lt;/span&gt;&lt;/div&gt;&lt;/font&gt;" style="rounded=1;whiteSpace=wrap;html=1;fillColor=#67AB9F;" parent="1" vertex="1">
          <mxGeometry x="680" y="20" width="190" height="100" as="geometry" />
        </mxCell>
        <mxCell id="FlsU7catDcET9zgMuJdI-1" value="虚空容器&lt;br&gt;每天完成15min闭眼养神" style="rounded=1;whiteSpace=wrap;html=1;fillColor=#D5E8D4;" parent="1" vertex="1">
          <mxGeometry x="460" y="650" width="120" height="60" as="geometry" />
        </mxCell>
        <mxCell id="bjL2-M4GHaSYIjEmQxFB-3" value="" style="endArrow=none;dashed=1;html=1;dashPattern=1 3;strokeWidth=2;rounded=0;" parent="1" edge="1">
          <mxGeometry width="50" height="50" relative="1" as="geometry">
            <mxPoint x="130" y="640" as="sourcePoint" />
            <mxPoint x="290" y="640" as="targetPoint" />
          </mxGeometry>
        </mxCell>
        <mxCell id="bjL2-M4GHaSYIjEmQxFB-4" value="" style="endArrow=none;dashed=1;html=1;dashPattern=1 3;strokeWidth=2;rounded=0;" parent="1" edge="1">
          <mxGeometry width="50" height="50" relative="1" as="geometry">
            <mxPoint x="279.5" y="720" as="sourcePoint" />
            <mxPoint x="279.5" y="640" as="targetPoint" />
          </mxGeometry>
        </mxCell>
        <mxCell id="bjL2-M4GHaSYIjEmQxFB-5" value="" style="endArrow=none;dashed=1;html=1;dashPattern=1 3;strokeWidth=2;rounded=0;" parent="1" edge="1">
          <mxGeometry width="50" height="50" relative="1" as="geometry">
            <mxPoint x="130" y="720" as="sourcePoint" />
            <mxPoint x="130" y="640" as="targetPoint" />
          </mxGeometry>
        </mxCell>
        <mxCell id="bjL2-M4GHaSYIjEmQxFB-6" value="" style="endArrow=none;dashed=1;html=1;dashPattern=1 3;strokeWidth=2;rounded=0;" parent="1" edge="1">
          <mxGeometry width="50" height="50" relative="1" as="geometry">
            <mxPoint x="130" y="720" as="sourcePoint" />
            <mxPoint x="290" y="720" as="targetPoint" />
          </mxGeometry>
        </mxCell>
        <mxCell id="WST3XxQGmWy1DqQvv_qS-1" value="模型裁剪&lt;br&gt;工作日每天花20min时间清理熟知和冷门的知识点" style="rounded=1;whiteSpace=wrap;html=1;fillColor=#D5E8D4;" parent="1" vertex="1">
          <mxGeometry x="650" y="550" width="120" height="60" as="geometry" />
        </mxCell>
        <mxCell id="IpGJSZYHcnI9OjIyq8Mq-2" value="T1 作息国策组" style="text;strokeColor=none;align=center;fillColor=none;html=1;verticalAlign=middle;whiteSpace=wrap;rounded=0;" parent="1" vertex="1">
          <mxGeometry x="395" y="150" width="80" height="30" as="geometry" />
        </mxCell>
        <mxCell id="IpGJSZYHcnI9OjIyq8Mq-3" value="T0 独立国策组" style="text;strokeColor=none;align=center;fillColor=none;html=1;verticalAlign=middle;whiteSpace=wrap;rounded=0;" parent="1" vertex="1">
          <mxGeometry x="395" y="-240" width="80" height="30" as="geometry" />
        </mxCell>
        <mxCell id="IpGJSZYHcnI9OjIyq8Mq-6" value="" style="swimlane;startSize=0;" parent="1" vertex="1">
          <mxGeometry x="130" y="400" width="300" height="230" as="geometry" />
        </mxCell>
        <mxCell id="IpGJSZYHcnI9OjIyq8Mq-7" value="" style="swimlane;startSize=0;" parent="1" vertex="1">
          <mxGeometry x="450" y="400" width="330" height="230" as="geometry" />
        </mxCell>
        <mxCell id="IpGJSZYHcnI9OjIyq8Mq-8" value="" style="swimlane;startSize=0;" parent="1" vertex="1">
          <mxGeometry x="800" y="400" width="330" height="230" as="geometry" />
        </mxCell>
        <mxCell id="IpGJSZYHcnI9OjIyq8Mq-4" value="战术规划&lt;br&gt;每天记录失策情况，可以第二天早上完成" style="rounded=1;whiteSpace=wrap;html=1;fillColor=#D5E8D4;" parent="IpGJSZYHcnI9OjIyq8Mq-8" vertex="1">
          <mxGeometry x="190" y="40" width="120" height="60" as="geometry" />
        </mxCell>
        <mxCell id="IpGJSZYHcnI9OjIyq8Mq-1" value="失误规避" style="text;strokeColor=none;align=center;fillColor=none;html=1;verticalAlign=middle;whiteSpace=wrap;rounded=0;" parent="IpGJSZYHcnI9OjIyq8Mq-8" vertex="1">
          <mxGeometry x="220" width="60" height="30" as="geometry" />
        </mxCell>
        <mxCell id="zJZYSnoFB1_QMDnHFb8m-1" value="外语漫游&lt;br&gt;工作日到公司30min内开始一小节英文论述" style="rounded=1;whiteSpace=wrap;html=1;fillColor=#D5E8D4;" vertex="1" parent="1">
          <mxGeometry x="650" y="650" width="120" height="60" as="geometry" />
        </mxCell>
      </root>
    </mxGraphModel>
  </diagram>
</mxfile>
